<svg width="32" height="32" viewBox="0 0 32 32" fill="none" xmlns="http://www.w3.org/2000/svg">
<rect width="32" height="32" rx="5" fill="#E3AC21"/>
<path d="M4 8.31191V4H28.9856C28.9752 4.25218 28.9543 4.50516 28.9543 4.75733C28.9527 8.85803 28.9535 12.9587 28.9535 17.0594V17.84C27.067 17.84 25.272 17.8224 23.4787 17.8513C22.9695 17.8593 22.8354 17.7027 22.841 17.2032C22.8675 15.0051 22.8402 12.8061 22.8635 10.608C22.8691 10.1069 22.7181 9.95267 22.2138 9.95829C19.847 9.98158 17.4794 9.96793 15.1119 9.97034C14.9737 9.97034 14.8364 9.99202 14.573 10.0145C14.7585 10.2378 14.8613 10.3839 14.985 10.5076C19.3933 14.9167 23.7951 19.3322 28.2243 23.7188C28.7616 24.2505 29.0202 24.7661 28.9712 25.5339C28.9005 26.6622 28.9535 27.7994 28.9535 28.9648C27.5545 28.9648 26.2454 28.9728 24.9371 28.9551C24.7765 28.9527 24.5806 28.8515 24.4633 28.7343C20.2598 24.5388 16.0668 20.3321 11.8657 16.135C9.24995 13.5209 6.62216 10.9188 4 8.31191Z" fill="#EFEFEF"/>
<path d="M4.13298 14.9956C6.09659 14.9956 7.97346 14.998 9.85034 14.994C10.2672 14.9932 10.2479 15.2719 10.2479 15.5578C10.2455 17.2484 10.2463 18.9389 10.2463 20.6295C10.2463 23.3946 10.2463 26.1597 10.2463 28.9666H4.13298V14.9956Z" fill="#EFEFEF"/>
</svg>
